<?xml version="1.0" encoding="utf-8"?>
<!-- Generator: Adobe Illustrator 14.0.0, SVG Export Plug-In . SVG Version: 6.00 Build 43363)  -->
<!DOCTYPE svg PUBLIC "-//W3C//DTD SVG 1.1//EN" "http://www.w3.org/Graphics/SVG/1.1/DTD/svg11.dtd">
<svg version="1.1"
	 id="svg2" xmlns:rdf="http://www.w3.org/1999/02/22-rdf-syntax-ns#" xmlns:sodipodi="http://sodipodi.sourceforge.net/DTD/sodipodi-0.dtd" xmlns:cc="http://creativecommons.org/ns#" xmlns:dc="http://purl.org/dc/elements/1.1/" xmlns:svg="http://www.w3.org/2000/svg" xmlns:inkscape="http://www.inkscape.org/namespaces/inkscape" inkscape:version="0.48.4 r9939" sodipodi:docname="New document 1"
	 xmlns="http://www.w3.org/2000/svg" xmlns:xlink="http://www.w3.org/1999/xlink" x="0px" y="0px" width="1096.401px"
	 height="841.891px" viewBox="-501.121 0 1096.401 841.891" enable-background="new -501.121 0 1096.401 841.891"
	 xml:space="preserve">
<sodipodi:namedview  id="base" pagecolor="#ffffff" showgrid="false" inkscape:zoom="0.49497475" inkscape:cx="6.3969031" inkscape:cy="484.35652" fit-margin-left="0" borderopacity="1.0" fit-margin-top="0" bordercolor="#666666" inkscape:window-y="0" inkscape:window-x="0" inkscape:window-height="1181" inkscape:window-width="1166" fit-margin-bottom="0" fit-margin-right="0" inkscape:current-layer="layer1" inkscape:document-units="px" inkscape:pageshadow="2" inkscape:pageopacity="0.0" inkscape:window-maximized="0">
	</sodipodi:namedview>
<g id="layer1" transform="translate(-62.857143,-38.169022)" inkscape:label="Layer 1" inkscape:groupmode="layer">
	<path id="path2985" sodipodi:nodetypes="cccc" inkscape:connector-curvature="0" fill="#FF6A9D" d="M97.067,806.262
		l261.231-703.515l266.405,700.929C448.825,894.603,272.946,914.953,97.067,806.262z"/>
	
		<path id="path3755" sodipodi:sides="5" sodipodi:type="star" sodipodi:cx="345.71429" sodipodi:r1="84.852814" sodipodi:cy="523.79077" sodipodi:r2="33.941124" sodipodi:arg1="0.78539816" sodipodi:arg2="1.4137167" inkscape:randomized="0" inkscape:rounded="0.05" inkscape:flatsided="false" inkscape:transform-center-y="-3.8973855" inkscape:transform-center-x="3.8973855" fill="#FFFCC2" d="
		M425.729,458.942c-1.943,1.944-46.791-24.399-49.508-23.969s-37.229,39.343-39.679,38.095c-2.451-1.249,8.745-52.042,7.496-54.493
		c-1.249-2.45-48.921-23.249-48.491-25.965c0.43-2.717,52.197-7.766,54.142-9.71c1.944-1.945,6.993-53.712,9.709-54.142
		c2.716-0.431,23.515,47.242,25.966,48.491c2.451,1.248,53.244-9.946,54.492-7.496s-37.664,36.963-38.094,39.679
		C401.331,412.149,427.675,456.997,425.729,458.942L425.729,458.942z"/>
	
		<path id="path3757" sodipodi:sides="5" sodipodi:type="star" sodipodi:cx="345.71429" sodipodi:r1="84.852814" sodipodi:cy="523.79077" sodipodi:r2="33.941124" sodipodi:arg1="0.78539816" sodipodi:arg2="1.4137167" inkscape:randomized="0" inkscape:rounded="0.05" inkscape:flatsided="false" inkscape:transform-center-y="-1.7947173" inkscape:transform-center-x="-2.9706611" fill="#C2F0FF" d="
		M248.026,725.596c-1.475,0.693-21.189-22.999-22.79-23.305s-28.656,14.459-29.772,13.271c-1.115-1.188,15.326-27.26,15.122-28.876
		c-0.204-1.617-22.607-22.786-21.822-24.214c0.786-1.429,30.661,6.151,32.136,5.458s14.685-28.542,16.285-28.236
		c1.601,0.306,3.624,31.062,4.74,32.25c1.115,1.188,31.682,5.146,31.886,6.763s-28.421,13.045-29.207,14.473
		C243.819,694.608,249.501,724.902,248.026,725.596L248.026,725.596z"/>
	
		<path id="path3759" sodipodi:sides="5" sodipodi:type="star" sodipodi:cx="345.71429" sodipodi:r1="84.852814" sodipodi:cy="523.79077" sodipodi:r2="33.941124" sodipodi:arg1="0.78539816" sodipodi:arg2="1.4137167" inkscape:randomized="0" inkscape:rounded="0.05" inkscape:flatsided="false" inkscape:transform-center-y="4.1509962" inkscape:transform-center-x="3.7253876" fill="#FFFCC2" d="
		M360.367,764.157c-2.525-0.389-7.432-48.445-9.246-50.244c-1.814-1.798-49.914-6.269-50.325-8.79s43.778-22.038,44.928-24.319
		c1.149-2.281-9.462-49.408-7.191-50.579c2.271-1.17,34.488,34.825,37.013,35.214c2.523,0.388,44.066-24.267,45.881-22.469
		s-22.465,43.562-22.053,46.082c0.41,2.521,36.695,34.411,35.547,36.692s-48.371-7.902-50.643-6.732
		C382.009,720.181,362.891,764.545,360.367,764.157L360.367,764.157z"/>
	
		<path id="path3761" sodipodi:sides="5" sodipodi:type="star" sodipodi:cx="345.71429" sodipodi:r1="84.852814" sodipodi:cy="523.79077" sodipodi:r2="33.941124" sodipodi:arg1="0.78539816" sodipodi:arg2="1.4137167" inkscape:randomized="0" inkscape:rounded="0.05" inkscape:flatsided="false" inkscape:transform-center-y="0.3534456" inkscape:transform-center-x="2.7631011" fill="#C7FFC2" d="
		M289.846,576.767c-0.602,0.881-19.586-5.94-20.591-5.582c-1.004,0.359-11.365,17.669-12.389,17.368
		c-1.023-0.3-0.403-20.463-1.055-21.308s-20.315-5.35-20.346-6.415c-0.031-1.066,19.337-6.707,19.939-7.588
		s-1.19-20.975-0.186-21.333c1.005-0.359,12.354,16.318,13.378,16.618s19.58-7.613,20.231-6.769
		c0.652,0.844-11.702,16.792-11.671,17.858C277.187,560.683,290.447,575.887,289.846,576.767L289.846,576.767z"/>
	
		<path id="path3763" sodipodi:sides="5" sodipodi:type="star" sodipodi:cx="345.71429" sodipodi:r1="84.852814" sodipodi:cy="523.79077" sodipodi:r2="33.941124" sodipodi:arg1="0.78539816" sodipodi:arg2="1.4137167" inkscape:randomized="0" inkscape:rounded="0.05" inkscape:flatsided="false" inkscape:transform-center-y="-1.018807" inkscape:transform-center-x="-3.9733928" fill="#C2FDFF" d="
		M519.227,582.542c0.105,1.626-29.156,11.307-30.027,12.685c-0.869,1.378,2.975,31.959,1.461,32.563s-19.764-24.235-21.342-24.637
		c-1.58-0.401-29.477,12.704-30.52,11.451c-1.041-1.254,16.943-26.285,16.836-27.911c-0.105-1.627-21.191-24.108-20.32-25.486
		c0.869-1.378,30.234,7.99,31.748,7.387s16.379-27.604,17.959-27.202c1.578,0.401,1.742,31.224,2.785,32.477
		C488.848,575.121,519.122,580.915,519.227,582.542L519.227,582.542z"/>
	
		<path id="path3765" sodipodi:sides="5" sodipodi:type="star" sodipodi:cx="345.71429" sodipodi:r1="84.852814" sodipodi:cy="523.79077" sodipodi:r2="33.941124" sodipodi:arg1="0.78539816" sodipodi:arg2="1.4137167" inkscape:randomized="0" inkscape:rounded="0.05" inkscape:flatsided="false" inkscape:transform-center-y="2.0195524" inkscape:transform-center-x="-3.000937" fill="#C2F0FF" d="
		M537.231,783.445c-0.211,1.616-30.793,5.454-31.912,6.638c-1.121,1.184-3.266,31.932-4.867,32.23
		c-1.602,0.3-14.701-27.601-16.174-28.3s-31.377,6.763-32.156,5.332c-0.781-1.432,21.705-22.512,21.916-24.128
		s-16.129-27.751-15.008-28.936c1.119-1.184,28.117,13.688,29.719,13.389c1.602-0.3,21.41-23.915,22.881-23.215
		c1.473,0.699-4.328,30.971-3.549,32.401C508.862,770.289,537.442,781.829,537.231,783.445L537.231,783.445z"/>
	
		<path id="path3769" sodipodi:sides="5" sodipodi:type="star" sodipodi:cx="345.71429" sodipodi:r1="84.852814" sodipodi:cy="523.79077" sodipodi:r2="33.941124" sodipodi:arg1="0.78539816" sodipodi:arg2="1.4137167" inkscape:randomized="0" inkscape:rounded="0.05" inkscape:flatsided="false" inkscape:transform-center-y="3.1296143" inkscape:transform-center-x="0.11132289" fill="#C7FFC2" d="
		M259.355,833.039c-1.067-0.012-5.929-19.59-6.785-20.226c-0.856-0.637-21.005,0.351-21.323-0.667
		c-0.319-1.018,16.799-11.692,17.139-12.703c0.341-1.011-6.825-19.868-5.955-20.486c0.87-0.617,16.311,12.364,17.378,12.376
		c1.066,0.012,16.787-12.631,17.643-11.995c0.856,0.637-6.718,19.334-6.399,20.352c0.318,1.019,17.2,12.063,16.859,13.073
		c-0.341,1.011-20.463-0.415-21.333,0.203C265.709,813.583,260.422,833.051,259.355,833.039L259.355,833.039z"/>
	
		<path id="path3771" sodipodi:sides="5" sodipodi:type="star" sodipodi:cx="345.71429" sodipodi:r1="84.852814" sodipodi:cy="523.79077" sodipodi:r2="33.941124" sodipodi:arg1="0.78539816" sodipodi:arg2="1.4137167" inkscape:randomized="0" inkscape:rounded="0.05" inkscape:flatsided="false" inkscape:transform-center-y="-1.2634893" inkscape:transform-center-x="1.8574445" fill="#C7FFC2" d="
		M489.964,705.72c-0.961-0.462,2.932-20.256,2.428-21.195c-0.506-0.939-19.176-8.583-19.033-9.641
		c0.145-1.057,20.172-3.471,20.908-4.242s2.238-20.889,3.287-21.079c1.051-0.19,9.535,18.111,10.496,18.573
		c0.961,0.463,20.559-4.326,21.064-3.387s-14.279,14.664-14.422,15.722c-0.143,1.057,10.467,18.214,9.73,18.985
		s-18.359-9.048-19.408-8.857C503.964,690.79,490.925,706.182,489.964,705.72L489.964,705.72z"/>
	
		<path id="path3773" sodipodi:sides="5" sodipodi:type="star" sodipodi:cx="345.71429" sodipodi:r1="84.852814" sodipodi:cy="523.79077" sodipodi:r2="33.941124" sodipodi:arg1="0.78539816" sodipodi:arg2="1.4137167" inkscape:randomized="0" inkscape:rounded="0.05" inkscape:flatsided="false" inkscape:transform-center-y="-1.2634893" inkscape:transform-center-x="1.8574445" fill="#C7FFC2" d="
		M365.598,553.922c-0.961-0.463,2.934-20.257,2.428-21.196c-0.506-0.938-19.175-8.583-19.032-9.64
		c0.143-1.058,20.171-3.472,20.907-4.243c0.738-0.771,2.238-20.888,3.289-21.079c1.049-0.19,9.533,18.111,10.494,18.574
		c0.961,0.462,20.559-4.326,21.064-3.388c0.506,0.939-14.279,14.665-14.422,15.722c-0.143,1.058,10.467,18.215,9.73,18.985
		c-0.736,0.771-18.359-9.048-19.408-8.856C379.6,538.991,366.561,554.384,365.598,553.922z"/>
	
		<path id="path3777" sodipodi:ry="127.27922" sodipodi:rx="127.27922" sodipodi:type="arc" sodipodi:cx="351.53308" sodipodi:cy="137.16397" fill="#93FFAC" d="
		M468.128,153.389c0,63.635-51.586,115.221-115.221,115.221c-63.635,0-115.221-51.586-115.221-115.221
		S289.272,38.169,352.906,38.169C416.542,38.169,468.128,89.755,468.128,153.389L468.128,153.389z"/>
</g>
</svg>
